# xmcd
#
# Track frame offsets:
#	150
#	21325
#	39134
#	54574
#	80636
#	97138
#	117085
#	137344
#	148986
#	170360
#	190717
#
# Disc length: 2771 seconds
#
# Revision: 0
# Processed by: cddbd v1.5.1PL2 Copyright (c) Steve Scherf et al.
# Submitted via: dBpowerAMP V4.0
#
DISCID=910ad10b
DTITLE=Steven Casper - Cowboy Angst
DYEAR=2005
DGENRE=Country
TTITLE0=Different Conversations
TTITLE1=Set 'Em Up
TTITLE2=River
TTITLE3=Locked Up Doors
TTITLE4=Where You Are
TTITLE5=Another Bad Day
TTITLE6=Maryann
TTITLE7=By Your Side
TTITLE8=Away
TTITLE9=Colors
TTITLE10=Bastards
EXTD=Catalogue Number BRRCD-8\nSilent City Records
EXTT0=
EXTT1=
EXTT2=
EXTT3=
EXTT4=
EXTT5=
EXTT6=
EXTT7=
EXTT8=
EXTT9=
EXTT10=
PLAYORDER=
